<?xml version="1.0" encoding="UTF-8"?>
<svg id="Camada_2" data-name="Camada 2" xmlns="http://www.w3.org/2000/svg" viewBox="0 0 118.87 118.84">
  <defs>
    <style>
      .cls-1 {
        fill: #d07641;
      }
    </style>
  </defs>
  <g id="Camada_1-2" data-name="Camada 1">
    <path class="cls-1" d="m118.23,13.41L111.52.22l-42.11,21.42C45.71-5.71,13.45.64,13.45.64L.26,7.35l21.44,42.15C-5.65,73.14.62,105.37.62,105.37l6.68,13.2,42.23-21.36c23.72,27.35,55.97,20.98,55.97,20.98l13.19-6.71-21.45-42.12c27.35-23.7,21-55.95,21-55.95Zm-19.9,90.73c-28.95,1.52-45.14-25.4-45.14-25.4t-10.77,5.48l-27.72,14.02c-1.44-28.95,25.52-45.08,25.52-45.08l-6.21-12.28s-.04.02-.06.04l-13.34-26.22c28.95-1.51,45.13,25.41,45.13,25.41l12.27-6.24s0,0,0,0l26.17-13.31c1.51,28.95-25.41,45.13-25.41,45.13l6.24,12.27s0,0,.01,0l13.33,26.18Z"/>
  </g>
</svg>