<?xml version="1.0" encoding="UTF-8"?>
<svg id="Camada_2" data-name="Camada 2" xmlns="http://www.w3.org/2000/svg" viewBox="0 0 514.2 118.84">
  <defs>
    <style>
      .cls-1 {
        fill: #222121;
      }
    </style>
  </defs>
  <g id="Camada_1-2" data-name="Camada 1">
    <g>
      <path class="cls-1" d="m479.47,23.11l-.05,49.92c-32.11-13.7-34.77-49.92-34.77-49.92l-19.64-.02-.1,22.96c-14.94-17.34-33.65-22.94-33.65-22.94h-17.96l-.04,40.38h-23.65s0-23.27,0-23.27v-17.02l-140.95-.08.05,52.18c-30.88-13.18-33.54-47.26-33.77-49.85l-.22-2.32h-17.47v70.54h17.69v-22.53c14.94,17.34,33.75,22.48,33.75,22.48l17.95.02h0s0,0,0,0l.05-50.04c32.11,13.7,34.77,50.07,34.77,50.07l16.69.02c-1.22-25.54-12.35-42.87-23.95-53.28h40.53v53.27s17.51,0,17.51,0l.04-53.27,19.73-.03.02,53.32h17.56v-12.95l23.64.04v12.91s17.94,0,17.94,0l.05-51.81c28.05,11.97,32.71,42.56,33.68,49.76l.19,2.05h17.6s0-28.55,0-28.55c15.25,20.32,36.71,28.55,36.71,28.55h17.95l.06-70.55h-17.95Z"/>
      <path class="cls-1" d="m118.23,13.41L111.52.22l-42.11,21.42C45.71-5.71,13.45.64,13.45.64L.26,7.35l21.44,42.15C-5.65,73.14.62,105.37.62,105.37l6.68,13.2,42.23-21.36c23.72,27.35,55.97,20.98,55.97,20.98l13.19-6.71-21.45-42.12c27.35-23.7,21-55.95,21-55.95Zm-19.9,90.73c-28.95,1.52-45.14-25.4-45.14-25.4t-10.77,5.48l-27.72,14.02c-1.44-28.95,25.52-45.08,25.52-45.08l-6.21-12.28s-.04.02-.06.04l-13.34-26.22c28.95-1.51,45.13,25.41,45.13,25.41l12.27-6.24s0,0,0,0l26.17-13.31c1.51,28.95-25.41,45.13-25.41,45.13l6.24,12.27s0,0,.01,0l13.33,26.18Z"/>
      <path class="cls-1" d="m508.91,23.23c-2.92,0-5.29,2.37-5.29,5.29s2.37,5.29,5.29,5.29,5.29-2.37,5.29-5.29-2.37-5.29-5.29-5.29Zm-3.96,5.29c0-1.19.53-2.27,1.37-2.99v5.98c-.84-.73-1.37-1.8-1.37-2.99Zm2.66,3.73v-3.04h.26c.3,0,.51.02.65.07.14.05.26.14.39.26.12.13.35.44.68.94l1.13,1.56c-.54.28-1.15.44-1.8.44-.46,0-.89-.08-1.3-.22Zm0-4.06v-1.61h1c.52,0,.83,0,.94.02.21.03.37.12.48.25s.17.3.17.52c0,.19-.04.35-.13.48s-.21.22-.36.27c-.15.05-.54.08-1.15.08h-.95Zm4.09,3.12l-.43-.69c-.31-.49-.55-.84-.73-1.03-.18-.19-.41-.37-.69-.53.56-.08.98-.28,1.26-.59.28-.31.42-.71.42-1.18,0-.38-.09-.71-.28-1-.19-.29-.43-.5-.74-.61-.31-.11-.8-.17-1.48-.17h-2.68c.69-.59,1.58-.94,2.56-.94,2.18,0,3.96,1.78,3.96,3.96,0,1.09-.45,2.08-1.16,2.8Z"/>
    </g>
  </g>
</svg>